<svg xmlns="http://www.w3.org/2000/svg" enable-background="new 0 0 50 50" viewBox="0 0 50 50"><path d="M13.89739,33.9247c1.2343,8.609,5.5745,13.9774,11.4253,14.1193c1.2849,0.6269,2.6548,0.956,4.081,0.956
		c5.5527,0,11.2207-4.7783,15.5488-13.1094c5.8242-11.2226,2.5-28.2929,2.3555-29.0146c-0.114-0.5717-0.8123-0.9926-1.4229-0.7002
		c-0.41178,0.1829-6.2292,2.8049-12.1135,7.2797c-2.0806-4.5353-4.76028-8.8276-7.4314-12.0717
		c-0.0013-0.0016-0.0032-0.0022-0.0045-0.0039C26.15249,1.1507,25.87459,1,25.55799,1c-0.3179,0-0.5959,0.1514-0.7793,0.3825
		c-0.00138,0.0017-0.0035,0.0025-0.0049,0.0042c-1.7369,2.1228-4.0826,5.6917-6.0996,9.4851
		c-6.7311-4.3908-14.8383-6.2463-15.7578-6.446c-0.0306-0.0095-0.0619-0.0088-0.0928-0.0154c-0.1,0.027-1.1687-0.1229-1.1987,0.9395
		c-0.0004,0.0134-0.0075,0.0254-0.0074,0.0388c0.0059,0.6142,0.21781,15.1592,6.9361,23.3584
		C10.29699,30.8779,12.09299,32.6065,13.89739,33.9247z M10.10089,27.4805c-3.6059-4.4014-5.2049-11.0009-5.9158-15.8465
		c2.0353,4.3519,5.2404,10.3304,9.3674,15.2464c-0.0835,1.3277-0.0816,2.7799,0.026,4.2427
		C12.41149,30.0996,11.24739,28.8819,10.10089,27.4805z M13.86069,24.0742c-4.3008-5.6064-7.4927-12.3252-9.1118-16.0966
		c2.8095,1.9316,7.104,5.123,11.08842,9.0498C15.00831,19.1919,14.23799,21.8055,13.86069,24.0742z M21.91369,35.0309
		c-1.1607-9.2142,0.9309-20.6471,3.6063-29.5973c0.0129-0.0432,0.02531-0.0871,0.03831-0.1304
		c0.00488,0.0164,0.00958,0.0332,0.01448,0.0497c3.38751,11.2965,6.91452,30.5585-0.0141,40.0966
		C25.47859,45.2782,22.80109,42.1303,21.91369,35.0309z M43.17709,34.9688c-3.8311,7.374-8.6357,11.7148-13.2617,12.0146
		c2.8243-1.4949,4.74191-4.3448,5.8908-7.3606c0.336-0.8821,6.2673-7.8358,10.3299-26.166
		C46.61609,19.3915,46.59109,28.3916,43.17709,34.9688z M36.29531,19.9678c3.167-4.2178,6.35048-7.7207,8.499-9.9492
		c-0.95122,4.8886-3.22952,14.706-7.43851,23.0049C37.95479,27.9137,37.53369,24.0758,36.29531,19.9678z M41.25659,10.8688
		c-1.6985,1.8629-3.7001,4.1854-5.7311,6.8129c-0.2824-0.7731-0.5825-1.5528-0.9216-2.3467
		C36.91599,13.5455,39.25559,12.0423,41.25659,10.8688z M35.61659,28.2217c0,6.4822-1.6414,15.5168-7.8047,17.4842
		c6.2656-9.8338,3.4542-27.0108,0.4257-38.2469C31.80859,13.1121,35.61659,21.5112,35.61659,28.2217z M23.31969,45.7207
		c-7.7551-2.4354-9.3418-16.9099-6.2406-26.2165c1.3611-4.0951,3.451-8.1504,5.7464-11.846
		C19.81789,18.8967,17.08219,35.9248,23.31969,45.7207z M16.65459,15.0336c-2.8451-2.735-5.7922-5.0902-8.2529-6.9046
		c2.8419,1.0133,6.2792,2.4919,9.34861,4.5204C17.70049,12.751,17.12769,13.9493,16.65459,15.0336z"/></svg>