<svg xmlns="http://www.w3.org/2000/svg" enable-background="new 0 0 64 64" viewBox="0 0 64 64"><path d="M28.45,40.75c-1.42,0-2.82-0.55-3.88-1.61c-1.77-1.77-2.12-4.52-0.84-6.67L38.91,6.89c0.98-1.65,2.64-2.74,4.54-2.98c1.9-0.24,3.78,0.4,5.13,1.76l9.46,9.46c1.36,1.36,2,3.23,1.76,5.13c-0.24,1.91-1.32,3.56-2.98,4.54L31.24,39.98C30.37,40.49,29.41,40.75,28.45,40.75z M44.22,6.9c-0.13,0-0.26,0.01-0.4,0.02c-0.97,0.12-1.81,0.67-2.3,1.51L26.35,34.02c-0.57,0.96-0.42,2.18,0.37,2.97c0.79,0.79,2.01,0.94,2.97,0.37l25.58-15.18c0.84-0.5,1.39-1.34,1.51-2.3c0.12-0.97-0.2-1.92-0.89-2.61l-9.46-9.46C45.84,7.23,45.05,6.9,44.22,6.9z"/><path d="M58.44,51.5c-0.6,0-1.2-0.11-1.79-0.32L28.69,41.01c-0.42-0.16-0.75-0.33-1.06-0.54c-0.69-0.48-0.86-1.42-0.39-2.12c0.48-0.69,1.43-0.86,2.12-0.38c0.1,0.07,0.22,0.13,0.39,0.19l27.93,10.16c0.87,0.32,1.54,0.03,1.94-0.26c0.89-0.65,1.4-1.97,1.33-3.43L60.19,28.5c-0.12-2.48-1.74-4.26-3.19-4.37c-0.84-0.06-1.47-0.79-1.4-1.63c0.06-0.84,0.79-1.45,1.63-1.4c3.18,0.24,5.82,3.43,6,7.26l0.76,16.14c0.11,2.51-0.85,4.75-2.57,6.02C60.53,51.16,59.5,51.5,58.44,51.5z"/><path d="M31.14 39.8c-.37 0-.75-.14-1.04-.41-.61-.58-.64-1.53-.07-2.14l.01-.01c.58-.61 1.54-.64 2.15-.06.61.58.64 1.54.06 2.15C31.95 39.64 31.55 39.8 31.14 39.8zM24.51 36.5c-.47 0-.94-.22-1.24-.64-.17-.24-.25-.46-.3-.6L12.82 7.35c-.6-1.64-.35-3.38.66-4.76 1.27-1.72 3.52-2.7 6.03-2.57l16.14.76c3.53.17 6.53 2.4 7.14 5.31.17.82-.35 1.63-1.17 1.8-.82.17-1.63-.35-1.8-1.17-.28-1.34-1.97-2.79-4.31-2.9L19.37 3.05c-1.47-.06-2.78.45-3.44 1.34-.29.4-.57 1.06-.26 1.92l10.15 27.92c.38.67.2 1.53-.44 1.99C25.12 36.41 24.81 36.5 24.51 36.5zM25.74 34.09C25.74 34.09 25.74 34.1 25.74 34.09 25.74 34.1 25.74 34.09 25.74 34.09zM45.23 64c-1.37 0-3.11-.5-4.91-2.32-1.61-1.62-2.69-3.86-3.11-6.45-1-6.23-2.55-11.02-4.15-12.82-.56-.63-.5-1.59.13-2.15.63-.56 1.59-.5 2.15.13 2.59 2.92 4.08 9.41 4.87 14.35.32 1.97 1.11 3.63 2.27 4.8 1.11 1.13 2.17 1.58 3.24 1.37 2.71-.52 6-4.93 9.03-12.11.33-.77 1.22-1.14 1.99-.81.77.33 1.14 1.22.81 1.99-3.58 8.49-7.36 13.17-11.26 13.92C45.98 63.96 45.62 64 45.23 64z"/><path d="M22.6 31.32c-.36 0-.72-.13-1.01-.38-1.82-1.61-6.49-3.12-12.82-4.15-2.59-.42-4.82-1.49-6.45-3.11-2.34-2.3-2.49-4.52-2.22-5.98.75-3.89 5.43-7.68 13.92-11.26.77-.33 1.67.04 1.99.81.33.77-.04 1.67-.81 1.99-7.18 3.02-11.59 6.31-12.11 9.03-.21 1.07.24 2.13 1.37 3.24 1.18 1.17 2.84 1.95 4.8 2.27 4.95.8 11.45 2.3 14.36 4.88.63.56.69 1.52.13 2.15C23.44 31.15 23.02 31.32 22.6 31.32zM50.26 18.15c-.84 0-1.52-.68-1.52-1.52 0-1.25-1.02-2.27-2.27-2.27-.84 0-1.52-.68-1.52-1.52s.68-1.52 1.52-1.52c2.93 0 5.31 2.38 5.31 5.31C51.78 17.47 51.1 18.15 50.26 18.15zM56.85 41.53c-.36 0-.73-.13-1.02-.39-.62-.56-.68-1.52-.11-2.15.84-.93.76-2.37-.17-3.21-.62-.56-.68-1.52-.11-2.15.56-.62 1.52-.68 2.15-.11 1.06.95 1.68 2.25 1.76 3.67.08 1.42-.41 2.78-1.35 3.84C57.68 41.36 57.26 41.53 56.85 41.53zM29.46 8.8c-.44 0-.87-.19-1.17-.55-.39-.47-.94-.76-1.54-.81-.61-.06-1.19.13-1.66.52-.65.54-1.61.45-2.14-.2-.54-.65-.45-1.6.2-2.14 1.09-.91 2.47-1.33 3.88-1.2 1.41.13 2.69.8 3.6 1.9.54.65.45 1.6-.2 2.14C30.15 8.69 29.8 8.8 29.46 8.8z"/></svg>