<svg xmlns="http://www.w3.org/2000/svg" viewBox="0 0 100 100"><path d="M24.667 41c1.883 1.287 2.984 3.362 2.946 5.55l-.761 43.583c-.057 3.266 2.354 6.052 5.487 6.343a6.087 6.087 0 0 0 4.7-1.591 6.076 6.076 0 0 0 1.941-4.555l-.765-43.779c-.038-2.188 1.063-4.263 2.945-5.549 4.295-2.935 6.66-8.145 6.66-14.671 0-10.763-6.375-22.8-14.907-22.8s-14.907 12.037-14.907 22.8c.002 6.524 2.367 11.734 6.661 14.669zm8.248-34.471c6.009 0 11.907 9.808 11.907 19.8 0 5.505-1.9 9.836-5.353 12.194-2.718 1.857-4.308 4.877-4.253 8.079l.765 43.779A3.072 3.072 0 0 1 35 92.684a3.049 3.049 0 0 1-2.383.803c-1.58-.146-2.795-1.597-2.765-3.303l.761-43.583c.055-3.201-1.535-6.221-4.254-8.079-3.451-2.358-5.352-6.688-5.352-12.194.001-9.992 5.899-19.799 11.908-19.799zm28.051 33.592 2.141.575a1.496 1.496 0 0 1 1.109 1.475l-.84 48.159a6.027 6.027 0 0 0 1.738 4.358c1.15 1.17 2.688 1.815 4.328 1.815s3.177-.645 4.327-1.814a6.023 6.023 0 0 0 1.738-4.358l-.84-48.159a1.497 1.497 0 0 1 1.11-1.475l2.14-.575a5.482 5.482 0 0 0 4.072-5.458l-.765-28.73a2.486 2.486 0 0 0-2.498-2.433h-2.223a2.503 2.503 0 0 0-2.5 2.5v23.627h-.914V5.999c0-1.378-1.121-2.5-2.5-2.5h-2.298a2.503 2.503 0 0 0-2.5 2.5v23.627h-.914V5.999c0-1.378-1.121-2.5-2.5-2.5h-2.222a2.487 2.487 0 0 0-2.499 2.434l-.764 28.729a5.487 5.487 0 0 0 4.074 5.459zm-.322-33.622h1.235v23.627c0 1.378 1.121 2.5 2.5 2.5h1.914c1.379 0 2.5-1.122 2.5-2.5V6.499h1.298v23.627c0 1.378 1.121 2.5 2.5 2.5h1.914c1.379 0 2.5-1.122 2.5-2.5V6.499h1.235l.752 28.243a2.493 2.493 0 0 1-1.852 2.481l-2.14.575a4.494 4.494 0 0 0-3.333 4.425l.84 48.159a3.043 3.043 0 0 1-.878 2.203c-1.166 1.184-3.214 1.182-4.376 0a3.041 3.041 0 0 1-.878-2.203l.84-48.159a4.494 4.494 0 0 0-3.332-4.425l-2.141-.575a2.493 2.493 0 0 1-1.851-2.481l.753-28.243z"/></svg>