<svg xmlns="http://www.w3.org/2000/svg" data-name="Layer 4" viewBox="0 0 128 128"><path d="M44.909 59.293a96.56 96.56 0 0 0 14.3 1.922l.1 0a1.5 1.5 0 0 0 .093-3 93.626 93.626 0 0 1-13.855-1.86 1.5 1.5 0 0 0-.637 2.932zM58.365 51.926l9.2 1.891h0a1.524 1.524 0 0 0 .3.03h.065a1.518 1.518 0 0 0 .366-.067l.073-.026a1.491 1.491 0 0 0 .371-.189l.007 0 .005 0 .009-.007 6.879-4.99a1.5 1.5 0 0 0 .615-1.329L75.706 40c0-.015-.008-.028-.01-.043a1.476 1.476 0 0 0-.094-.4c-.005-.012-.012-.022-.017-.033a1.529 1.529 0 0 0-.112-.221 1.241 1.241 0 0 0-.078-.1c-.019-.025-.037-.049-.058-.073a1.464 1.464 0 0 0-.3-.266c-.012-.008-.025-.013-.037-.021a1.485 1.485 0 0 0-.342-.155c-.018-.005-.032-.017-.05-.022l-8.02-2.228a1.525 1.525 0 0 0-1.139.139L57.93 40.828l-.007 0a1.538 1.538 0 0 0-.289.219c-.02.019-.037.04-.056.06a1.549 1.549 0 0 0-.171.221c-.017.028-.035.054-.051.084a1.461 1.461 0 0 0-.118.281c-.006.018-.014.034-.019.052l-.005.013a1.453 1.453 0 0 0-.043.344c0 .009 0 .018 0 .028v8.321A1.5 1.5 0 0 0 58.365 51.926zm1.8-7.859l5.916 1.514.208 4.911-6.124-1.259zm9.085 5.426L69.07 45.2l3.836-2.464.3 3.887zM66.386 39.5l4.193 1.165-3.306 2.122-4.618-1.182z"/><path d="M103.793,58.589c2.585-1.96,3.93-4.156,3.93-6.516a6.3,6.3,0,0,0-.606-2.668,6.293,6.293,0,0,0,.606-2.668c0-5.2-6.714-9.7-18.424-12.377a6.522,6.522,0,0,0-1.867-1.3,48.255,48.255,0,0,0-19.561-3.841A42.791,42.791,0,0,0,48.76,33.447C34.323,35.87,25.708,40.83,25.708,46.737a6.307,6.307,0,0,0,.605,2.668,6.31,6.31,0,0,0-.605,2.668,7.387,7.387,0,0,0,2.437,5.217C12.169,62.956,2.713,72.062,2.713,81.938c0,17.026,27.038,30.362,61.556,30.362s61.555-13.336,61.555-30.362C125.824,72.756,117.829,64.335,103.793,58.589Zm1.646,9.54A3.6,3.6,0,0,1,104.8,70c-.006.008-.007.018-.012.026s-.013.014-.019.022c-1.127,1.693-3.65,3.334-7.182,4.711a9.605,9.605,0,0,0-.7-3.008c-.416-1.046-1.3-3.68-.6-5.668a14.008,14.008,0,0,0,.99-4.025c.5-.2.989-.4,1.457-.6C103.061,63.544,105.5,65.96,105.439,68.129ZM94.541,81.1c-7.376,2.249-17.164,3.328-27.552,3.056a101.844,101.844,0,0,1-20.783-2.587,11.146,11.146,0,0,0-.2-2.328,105.208,105.208,0,0,0,21.046,2.579q1.63.045,3.244.044A100.183,100.183,0,0,0,89.681,80.09a5.946,5.946,0,0,0,2.67.987l.186.019a4.732,4.732,0,0,0,3.384-1.231,4.873,4.873,0,0,0,1.163-1.735,25.472,25.472,0,0,0,8.162-4.231C104.785,76.511,100.85,79.174,94.541,81.1Zm6.021,3.757a5.567,5.567,0,1,1,0,11.133,5.5,5.5,0,0,1-2.546-.63,7.524,7.524,0,0,0-2.963-5.69A5.571,5.571,0,0,1,100.562,84.855ZM61.685,91.027h-.214c-20.176,0-34.214-4.994-37.194-9.712-.006-.009-.014-.016-.02-.026s-.007-.018-.012-.026a3.549,3.549,0,0,1-.588-1.882c0-1.523,1.244-3.152,3.52-4.677,1.374,2.484,4.378,4.765,8.9,6.727a6.08,6.08,0,0,0,.4,1.974,5.1,5.1,0,0,0,2.226,2.644,4.859,4.859,0,0,0,2.4.629,5.106,5.106,0,0,0,2.363-.588,5.177,5.177,0,0,0,1.87-1.649,104.652,104.652,0,0,0,21.585,2.711q1.636.045,3.251.044a90.735,90.735,0,0,0,24.583-3.042,8.627,8.627,0,0,0-1.076,1.206c-.022.01-.045.014-.066.025C86.416,88.9,74.485,91.005,61.685,91.027Zm22.407.659a7.482,7.482,0,0,0-1,2.526,1.543,1.543,0,0,0-.268.032,101.7,101.7,0,0,1-21.13,2.119h-.21c-10.315,0-19.989-1.328-27.256-3.744-6.266-2.083-10.133-4.846-10.523-7.471,6.072,5.332,20.769,8.879,37.772,8.879h.213A104.007,104.007,0,0,0,84.092,91.686ZM35.529,58.543q-.515-.233-.992-.471l-.032-.017c-3.454-1.727-5.489-3.667-5.762-5.548A23.582,23.582,0,0,0,35.5,56.449,17.753,17.753,0,0,0,35.529,58.543Zm-1.674,2.53q1.037.488,2.2.945.167.714.38,1.45c-.007.791-.057,3.769-.433,7.752-.047.493-.077.965-.1,1.425-2.918-1.442-4.944-3.011-5.885-4.6-.006-.01-.015-.018-.021-.028s-.006-.018-.011-.027a3.561,3.561,0,0,1-.535-1.9C29.5,64.415,31.063,62.649,33.855,61.073Zm2.052,14.883c.029.518.066.984.107,1.376h0c.027.261.032.534.049.8-4.1-1.967-6.486-4.186-6.731-6.272A23.577,23.577,0,0,0,35.907,75.956Zm27.462-4.4A4.235,4.235,0,0,0,67.45,74.49c.038,0,.076,0,.114,0a4.4,4.4,0,0,0,3.915-5.056,10.984,10.984,0,0,1,.172-2.751c3.121-.128,6.179-.381,9.121-.75a7.2,7.2,0,0,0,3.792,4.394,3.262,3.262,0,0,1,1.125.906A5.486,5.486,0,0,1,86.931,74.8a6.319,6.319,0,0,0,.544,2.649A102.719,102.719,0,0,1,67.132,78.82a100.374,100.374,0,0,1-21.644-2.8,18.374,18.374,0,0,1-.074-2.57c.12-2.728.524-5.847,2.614-8.3a.214.214,0,0,1,.2.034c2.258,1.511,7.409,3.473,12.392,1.237a2.338,2.338,0,0,1,2.213.082c.135.089.451.3.228,1.66A6.556,6.556,0,0,0,63.369,71.558Zm9.141-7.923c.757-2.331,1.05-2.371,3.923-2.687,2.374-.266,3.248.678,3.383,1.21.072.281.132.561.195.842C77.581,63.294,75.07,63.507,72.51,63.635ZM90.49,91.117a4.541,4.541,0,1,1-4.541,4.541A4.546,4.546,0,0,1,90.49,91.117Zm6.7-32.261a10.863,10.863,0,0,0-.238-1.14,2.791,2.791,0,0,1-.082-.859,25.132,25.132,0,0,0,7.819-4.357C104.377,54.684,101.705,56.939,97.189,58.856Zm7.534-12.119a3.556,3.556,0,0,1-.579,1.874l-.012.016a12.1,12.1,0,0,1-4.682,3.808c.034-.065.074-.13.107-.2A6.638,6.638,0,0,0,97.5,43.812a16.492,16.492,0,0,0-5.371-2.559,1.146,1.146,0,0,1-.867-1.187c0-.029.013-.089.017-.119a6.574,6.574,0,0,0-.075-2.017C99.505,40.192,104.723,43.535,104.723,46.737ZM44.072,43.822a2.779,2.779,0,0,1-.419-2.463c.775-2.426,4.7-4.49,6.143-5.08a1.5,1.5,0,0,0,.229-.118,39.319,39.319,0,0,1,17.846-3.943,45.875,45.875,0,0,1,18.316,3.57A3.722,3.722,0,0,1,88.3,39.615a4.137,4.137,0,0,0,3.052,4.534,13.516,13.516,0,0,1,4.4,2.1,3.654,3.654,0,0,1,1.13,4.639,13.391,13.391,0,0,1-1.756,2.584A5.258,5.258,0,0,0,94.119,55.3a1.266,1.266,0,0,0-.042.149,5.677,5.677,0,0,0-.022,3.05,10.67,10.67,0,0,1-.518,6.4c-.016.035-.031.071-.045.107-1.051,2.858-.068,6.147.611,7.853a6.439,6.439,0,0,1,.513,2.363,3.36,3.36,0,0,1-.715,2.428,1.721,1.721,0,0,1-1.126.458l-.1-.009a3.127,3.127,0,0,1-2.741-3.239,8.536,8.536,0,0,0-1.884-5.484,6.282,6.282,0,0,0-2.158-1.74c-1.9-.936-2.3-2.384-2.852-4.865-.1-.448-.2-.9-.313-1.349-.385-1.51-2.206-3.94-6.62-3.452-4.9.54-5.556,1.873-6.735,5.651l-.236.751a14.132,14.132,0,0,0-.647,5.268c.1,1.379-.553,1.773-1.109,1.853-.442-.013-.888-.166-1.2-1a3.558,3.558,0,0,1-.154-1.841c.361-2.208-.141-3.729-1.537-4.649a5.271,5.271,0,0,0-5.093-.314c-3.8,1.7-7.871.094-9.494-.994a3.143,3.143,0,0,0-4.15.513c-2.68,3.14-3.187,6.873-3.33,10.111A24.181,24.181,0,0,0,43,79.455a8.024,8.024,0,0,1,.2,2.353,2.065,2.065,0,0,1-1.131,1.624,1.954,1.954,0,0,1-1.893.006,2.086,2.086,0,0,1-.908-1.121,3.517,3.517,0,0,1-.189-1.478A23.851,23.851,0,0,0,39,77.023a28.346,28.346,0,0,1-.009-5.521c.454-4.8.448-8.114.448-8.252a1.522,1.522,0,0,0-.063-.424c-2.64-8.849.978-12.738,3.928-14.893A3.063,3.063,0,0,0,44.072,43.822ZM42.27,37.9A7.534,7.534,0,0,0,40.8,40.442a6.02,6.02,0,0,0,.734,5.069,14.025,14.025,0,0,0-5.58,7.884c-3.292-1.437-5.628-3.1-6.65-4.76l-.009-.012v0a3.555,3.555,0,0,1-.584-1.884C28.708,43.928,32.96,40.4,42.27,37.9Zm22,71.4C31.98,109.3,5.713,97.025,5.713,81.938c0-8.8,9.24-17.075,24.754-22.265-3.171,2.317-3.97,4.654-4.014,6.342a6.31,6.31,0,0,0,.534,2.682,6.294,6.294,0,0,0-.676,2.652c0,.112.007.224.011.336-4.658,2.819-5.668,5.718-5.665,7.7a6.292,6.292,0,0,0,.611,2.668,6.314,6.314,0,0,0-.6,2.669c.008,4.286,4.369,8,12.615,10.743,7.566,2.514,17.574,3.9,28.2,3.9H61.7a105.186,105.186,0,0,0,21.421-2.118A7.534,7.534,0,0,0,97.508,98.4a8.489,8.489,0,0,0,3.054.59,8.561,8.561,0,0,0,.353-17.115c4.767-2.284,7.294-5.116,7.38-8.331a6.314,6.314,0,0,0-.534-2.683,6.278,6.278,0,0,0,.676-2.65,7.369,7.369,0,0,0-2.31-5.289c10.555,5.1,16.7,11.977,16.7,19.018C122.824,97.025,96.557,109.3,64.269,109.3Z"/></svg>