<svg xmlns="http://www.w3.org/2000/svg" width="32" height="32"><path fill="#f8b84e" d="m3.99 14.508-.749.979-1.24.354.777.96L2.76 18l1.23-.386L5.22 18 5.202 16.8l.779-.96-1.241-.354zM9.997 14.516l-.746.976-1.237.353.775.956-.018 1.195 1.226-.385 1.226.385-.018-1.195.775-.956-1.237-.353zM16.008 14.508l-.749.979-1.24.354.777.96L14.778 18l1.23-.386 1.23.386-.018-1.199.779-.96-1.241-.354zM22.016 14.516l-.746.976-1.237.353.775.956-.018 1.195 1.226-.385 1.226.385-.018-1.195.775-.956-1.237-.353zM28.001 14.516l-.746.976-1.237.353.775.956-.018 1.195 1.226-.385 1.226.385-.018-1.195.775-.956-1.237-.353z"/></svg>